# xmcd
#
# Track frame offsets: 
#        150
#        17247
#        40128
#        53319
#
# Disc length: 1003 seconds
#
# Revision: 0
# Processed by: cddbd v1.5.2PL0 Copyright (c) Steve Scherf et al.
# Submitted via: ExactAudioCopy v0.95b4
#
DISCID=2403e904
DTITLE=Johannes Rosenstock - Blüht auf und lädt zum Tanze ein
DYEAR=2017
DGENRE=Pop
TTITLE0=12.000 Meilen
TTITLE1=Hallo
TTITLE2=Was Liebe ist
TTITLE3=Leg deinen Kopf an mein Herz
EXTD=
EXTT0=
EXTT1=
EXTT2=
EXTT3=
PLAYORDER=
